<?xml version="1.0" encoding="UTF-8"?>
<svg width="50px" height="50px" viewBox="0 0 50 50" version="1.1" xmlns="http://www.w3.org/2000/svg" xmlns:xlink="http://www.w3.org/1999/xlink">
    <!-- Generator: Sketch 51.3 (57544) - http://www.bohemiancoding.com/sketch -->
    <title>Icon/Insta_black</title>
    <desc>Created with Sketch.</desc>
    <defs></defs>
    <g id="Icon/Insta_black" stroke="none" stroke-width="1" fill="none" fill-rule="evenodd">
        <path d="M25.0000298,10 C20.9262446,10 20.4154287,10.0172674 18.8155192,10.0902666 C17.2189441,10.1630872 16.1285406,10.4166791 15.17443,10.7875103 C14.1880474,11.170786 13.3515335,11.6836859 12.51758,12.51758 C11.6836859,13.3515335 11.170786,14.1880474 10.7875103,15.17443 C10.4166791,16.1285406 10.1630872,17.2189441 10.0902666,18.8155192 C10.0172674,20.4154287 10,20.9262446 10,25.0000298 C10,29.0737554 10.0172674,29.5845713 10.0902666,31.1844808 C10.1630872,32.7810559 10.4166791,33.8714594 10.7875103,34.82557 C11.170786,35.8119526 11.6836859,36.6484665 12.51758,37.48242 C13.3515335,38.3163141 14.1880474,38.829214 15.17443,39.2125492 C16.1285406,39.5833209 17.2189441,39.8369128 18.8155192,39.9097334 C20.4154287,39.9827326 20.9262446,40 25.0000298,40 C29.0737554,40 29.5845713,39.9827326 31.1844808,39.9097334 C32.7810559,39.8369128 33.8714594,39.5833209 34.82557,39.2125492 C35.8119526,38.829214 36.6484665,38.3163141 37.48242,37.48242 C38.3163141,36.6484665 38.829214,35.8119526 39.2125492,34.82557 C39.5833209,33.8714594 39.8369128,32.7810559 39.9097334,31.1844808 C39.9827326,29.5845713 40,29.0737554 40,25.0000298 C40,20.9262446 39.9827326,20.4154287 39.9097334,18.8155192 C39.8369128,17.2189441 39.5833209,16.1285406 39.2125492,15.17443 C38.829214,14.1880474 38.3163141,13.3515335 37.48242,12.51758 C36.6484665,11.6836859 35.8119526,11.170786 34.82557,10.7875103 C33.8714594,10.4166791 32.7810559,10.1630872 31.1844808,10.0902666 C29.5845713,10.0172674 29.0737554,10 25.0000298,10 Z M25.0000298,12.7026979 C29.0051623,12.7026979 29.4795977,12.7180003 31.0612872,12.7901659 C32.5237724,12.8568537 33.318011,13.1012165 33.8465706,13.3066384 C34.546732,13.5787481 35.0464135,13.9037911 35.5712814,14.4287186 C36.0962089,14.9535865 36.4212519,15.453268 36.6933616,16.1534294 C36.8987835,16.681989 37.1431463,17.4762276 37.2098341,18.9387128 C37.2819997,20.5204023 37.2973021,20.9948377 37.2973021,25.0000298 C37.2973021,29.0051623 37.2819997,29.4795977 37.2098341,31.0612872 C37.1431463,32.5237724 36.8987835,33.318011 36.6933616,33.8465706 C36.4212519,34.546732 36.0962089,35.0464135 35.5712814,35.5712814 C35.0464135,36.0962089 34.546732,36.4212519 33.8465706,36.6933616 C33.318011,36.8987835 32.5237724,37.1431463 31.0612872,37.2098341 C29.4798359,37.2819997 29.0054601,37.2973021 25.0000298,37.2973021 C20.9945399,37.2973021 20.5202236,37.2819997 18.9387128,37.2098341 C17.4762276,37.1431463 16.681989,36.8987835 16.1534294,36.6933616 C15.453268,36.4212519 14.9535865,36.0962089 14.4287186,35.5712814 C13.9038506,35.0464135 13.5787481,34.546732 13.3066384,33.8465706 C13.1012165,33.318011 12.8568537,32.5237724 12.7901659,31.0612872 C12.7180003,29.4795977 12.7026979,29.0051623 12.7026979,25.0000298 C12.7026979,20.9948377 12.7180003,20.5204023 12.7901659,18.9387128 C12.8568537,17.4762276 13.1012165,16.681989 13.3066384,16.1534294 C13.5787481,15.453268 13.9037911,14.9535865 14.4287186,14.4287186 C14.9535865,13.9037911 15.453268,13.5787481 16.1534294,13.3066384 C16.681989,13.1012165 17.4762276,12.8568537 18.9387128,12.7901659 C20.5204023,12.7180003 20.9948377,12.7026979 25.0000298,12.7026979 Z M25.0000298,30 C22.2385634,30 20,27.7614366 20,25.0000298 C20,22.2385634 22.2385634,20 25.0000298,20 C27.7614366,20 30,22.2385634 30,25.0000298 C30,27.7614366 27.7614366,30 25.0000298,30 Z M25.0000298,17.2973021 C29.2541099,17.2973021 32.7026979,20.7458901 32.7026979,25.0000298 C32.7026979,29.2541099 29.2541099,32.7026979 25.0000298,32.7026979 C20.7458901,32.7026979 17.2973021,29.2541099 17.2973021,25.0000298 C17.2973021,20.7458901 20.7458901,17.2973021 25.0000298,17.2973021 Z M34.8070522,16.9929799 C34.8070522,17.9871031 34.0011432,18.7929525 33.0070201,18.7929525 C32.0129565,18.7929525 31.2070475,17.9871031 31.2070475,16.9929799 C31.2070475,15.9988568 32.0129565,15.1929478 33.0070201,15.1929478 C34.0011432,15.1929478 34.8070522,15.9988568 34.8070522,16.9929799 Z" id="Fill-1" fill="#0A0B09"></path>
    </g>
</svg>